# xmcd CD database file
#
# Track frame offsets:
#	150
#	18563
#	40238
#	58617
#	87942
#	107667
#	133992
#	148167
#	162642
#	185367
#	210604
#	238117
#	260017
#	280492
#
# Disc length: 4059 seconds
#
# Revision: 0
# Processed by: cddbd v1.5.2PL0 Copyright (c) Steve Scherf et al.
# Submitted via: CDex 1.51
#
DISCID=da0fd90e
DTITLE=Greyhound George - Live From A Tasca
DYEAR=2015
DGENRE=Blues
TTITLE0=Black Cat Bone
TTITLE1=Kansas City Papa
TTITLE2=All You Can Eat
TTITLE3=Honey Bee
TTITLE4=Lawyer McGrath
TTITLE5=Brownsville Blues
TTITLE6=Kid Man
TTITLE7=Queen Of Saccharine
TTITLE8=Death Valley Blues
TTITLE9=Old Man Blues
TTITLE10=Bricks In My Pillow
TTITLE11=Low Down Blues
TTITLE12=St. Paul Woman
TTITLE13=Goin' To Louisiana
EXTD=YEAR: 2015
EXTT0=
EXTT1=
EXTT2=
EXTT3=
EXTT4=
EXTT5=
EXTT6=
EXTT7=
EXTT8=
EXTT9=
EXTT10=
EXTT11=
EXTT12=
EXTT13=
PLAYORDER=
